<svg xmlns="http://www.w3.org/2000/svg" width="100%" height="auto" version="1.1" desc="Created with imagetracer.js version 1.2.6" preserveAspectRatio="xMidYMid meet" viewBox="0 0 800 799" style="max-width: 100%; max-height: 70vh;"><path fill="rgb(1,0,0)" stroke="rgb(1,0,0)" stroke-width="1" opacity="1" d="M 0 0 L 800 0 L 800 799 L 0 799 L 0 0 Z M 321 176 L 320 177 L 303 177 L 285 181 Q 271 187 262 196 L 249 213 L 244 226 L 243 239 L 242 240 L 244 260 Q 247 272 255 280 L 257 283 Q 264 291 276 296 L 288 300 Q 294 298 296 301 L 311 300 L 323 296 L 325 297 L 277 418 L 266 440 L 254 457 L 241 467 L 233 469 L 227 469 L 225 471 L 229 472 Q 234 474 236 471 L 241 472 L 245 471 L 269 471 L 270 472 L 293 472 L 294 471 L 306 471 L 306 469 L 300 469 L 290 466 L 281 457 L 278 445 L 279 431 L 283 414 L 300 370 L 319 371 L 309 389 L 305 409 L 305 426 L 308 442 Q 315 465 329 482 Q 345 500 369 511 L 382 516 L 412 522 L 444 522 Q 445 519 452 521 L 476 516 L 491 511 Q 522 499 545 477 Q 558 464 567 447 L 573 431 L 575 422 L 575 414 L 576 413 L 574 389 Q 569 368 557 354 L 536 333 L 516 322 L 487 312 Q 482 313 483 310 L 488 310 L 508 304 Q 524 298 536 287 L 550 270 L 557 253 Q 555 246 558 245 L 557 230 L 547 210 Q 537 197 522 189 L 501 181 L 486 178 L 465 177 L 464 176 L 321 176 Z M 549 542 L 548 543 L 532 543 L 527 545 Q 519 550 517 560 L 518 568 L 521 573 L 531 579 Q 544 581 550 575 L 552 571 L 550 571 Q 546 576 539 577 Q 532 578 530 575 Q 524 571 523 564 L 523 559 L 526 551 L 532 546 Q 536 547 538 545 L 546 548 Q 548 547 547 550 Q 549 554 551 551 Q 552 546 550 545 Q 551 541 549 542 Z M 672 542 L 671 543 L 655 543 L 649 545 Q 641 550 639 561 Q 641 562 640 567 L 643 572 Q 642 574 645 573 L 645 575 L 653 579 Q 666 581 672 575 L 674 572 L 674 570 L 662 577 L 653 576 Q 646 572 645 564 L 646 555 L 648 551 Q 651 546 657 545 Q 666 545 670 550 Q 669 552 673 551 L 672 542 Z M 31 543 L 20 573 L 17 577 Q 14 576 15 579 L 22 579 L 23 578 L 21 577 L 25 567 L 26 565 L 40 565 L 44 576 L 42 579 L 53 579 L 54 578 L 50 576 L 38 546 L 38 543 L 31 543 Z M 58 543 L 58 545 L 61 547 L 61 560 L 60 561 Q 58 567 61 569 Q 62 573 60 575 Q 61 578 58 577 L 59 579 L 88 579 L 89 574 Q 91 567 87 568 L 86 572 L 81 576 L 66 576 L 66 547 L 69 545 L 69 543 L 58 543 Z M 94 543 Q 93 546 96 545 L 96 577 Q 93 576 94 579 L 116 579 L 121 577 L 125 571 Q 126 565 123 563 L 118 560 L 121 556 L 121 549 L 119 545 L 115 543 L 94 543 Z M 130 543 L 132 547 L 132 576 L 129 578 L 131 579 L 159 579 L 161 571 Q 162 566 158 568 Q 157 573 153 576 L 138 576 L 138 562 Q 147 560 149 566 Q 148 568 151 567 Q 150 559 152 555 Q 148 553 149 557 L 147 559 L 138 559 L 138 547 L 140 545 L 145 546 L 147 546 L 150 545 L 154 546 L 158 553 L 161 554 L 159 545 L 159 543 L 130 543 Z M 166 543 L 167 545 L 168 546 L 168 576 L 165 578 L 167 579 L 176 579 L 174 576 L 174 566 L 179 566 L 185 576 L 190 579 L 195 579 L 201 577 L 194 576 L 186 566 L 191 564 Q 196 562 197 556 L 195 548 L 189 543 L 166 543 Z M 203 543 L 201 552 L 203 554 L 205 550 L 209 546 Q 214 547 216 545 L 216 576 L 214 578 L 215 579 L 225 579 Q 226 576 224 577 L 222 576 L 222 547 L 226 545 L 231 547 L 233 552 Q 235 556 237 553 L 235 546 L 235 543 L 203 543 Z M 255 543 L 249 546 Q 242 550 241 559 Q 241 568 245 573 L 256 579 Q 267 581 272 576 Q 277 573 279 566 Q 281 556 277 552 Q 272 541 255 543 Z M 302 543 L 302 545 L 305 547 L 305 576 L 304 577 Q 301 576 302 579 L 325 579 L 328 578 L 333 572 L 332 564 L 327 560 L 329 557 Q 330 550 328 547 L 324 543 L 302 543 Z M 355 543 L 341 575 Q 342 577 340 576 L 338 579 L 345 579 L 346 578 L 344 577 L 348 567 L 349 565 L 362 565 L 367 576 L 365 579 L 376 579 L 376 578 L 373 576 L 361 545 Q 360 542 355 543 Z M 381 543 Q 380 546 383 545 L 383 576 L 381 578 L 382 579 L 410 579 L 412 571 Q 413 567 411 568 L 408 573 L 404 576 L 389 576 L 389 547 L 392 544 L 381 543 Z M 434 543 L 431 547 L 420 576 L 416 578 L 418 579 L 424 579 L 423 577 L 426 567 L 428 565 L 441 565 L 445 575 Q 446 578 444 577 L 445 579 L 455 579 L 455 578 L 452 576 L 439 545 Q 440 542 434 543 Z M 460 543 L 462 547 L 462 576 L 459 578 L 461 579 L 467 579 L 465 576 L 466 551 L 487 578 L 488 579 L 495 579 Q 496 576 494 577 L 492 576 L 492 547 L 495 543 L 488 543 L 487 545 L 490 547 L 490 571 L 470 547 Q 468 541 460 543 Z M 571 543 L 566 545 Q 559 549 557 557 Q 556 567 560 572 Q 564 577 572 579 Q 584 581 589 575 Q 594 571 595 564 Q 596 555 592 551 Q 588 545 582 543 L 571 543 Z M 600 543 L 602 545 L 602 576 L 600 578 L 601 579 L 607 579 L 605 576 L 606 551 L 627 579 L 635 579 L 635 577 L 632 576 L 632 547 L 634 545 Q 636 546 635 543 L 628 543 L 627 545 L 630 547 L 630 571 L 628 571 L 610 547 Q 608 541 600 543 Z M 679 543 Q 678 546 681 545 L 681 577 L 679 577 L 680 579 L 708 579 L 710 571 Q 711 567 709 568 L 706 573 L 702 576 L 687 576 L 687 562 L 696 562 L 698 566 Q 697 568 700 567 L 700 558 L 701 557 Q 702 554 700 555 L 698 558 Q 695 560 687 559 L 687 547 L 689 545 Q 703 542 707 551 Q 706 555 710 553 L 708 545 L 708 543 L 679 543 Z M 715 543 Q 714 546 717 545 L 717 577 L 715 577 L 716 579 L 725 579 Q 726 576 723 577 L 724 563 L 730 566 Q 739 566 743 562 L 746 556 Q 747 550 744 548 L 738 543 L 715 543 Z M 752 543 L 751 548 Q 749 554 753 553 L 754 550 L 760 545 Q 765 544 766 547 L 766 574 L 765 575 L 765 577 Q 762 576 763 579 L 773 579 L 774 578 L 773 577 L 771 576 L 771 545 L 779 546 Q 783 548 783 553 L 786 553 L 784 546 L 784 543 L 752 543 Z M 210 615 L 210 623 L 590 623 L 591 622 Q 592 615 591 615 L 210 615 Z "/><path fill="rgb(1,0,0)" stroke="rgb(1,0,0)" stroke-width="1" opacity="1" d="M 394 180 L 456.5 180 L 457.5 181 L 465.5 181 L 483.5 187 Q 495.8 193.2 504 203.5 L 510 212.5 L 515 224.5 L 517 234.5 L 517 251.5 Q 510.8 278.8 492.5 294 Q 482.1 303.6 466.5 308 L 456.5 310 L 438.5 310 Q 437.3 312.3 432.5 311 L 429 306.5 L 394 223.5 L 394 180 Z "/><path fill="rgb(1,0,0)" stroke="rgb(1,0,0)" stroke-width="1" opacity="1" d="M 299.5 182 Q 323.8 181.8 335 194.5 L 342 203.5 L 355 229.5 L 407 353.5 L 411 367 L 360.5 366 L 359.5 367 L 329.5 367 L 328.5 366 L 304.5 366 L 302 367 L 302 363.5 L 317 327.5 L 323 309.5 L 329 294.5 L 331.5 292 Q 340.3 288.3 345 280.5 Q 350.3 274.8 352 265.5 L 352 251.5 L 346 240 L 344 240 Q 345.1 237.3 342.5 238 Q 337 233 324.5 235 L 320 236.5 L 322 237 L 330 251.5 L 330 264.5 Q 326.4 278.4 316.5 286 Q 308.5 293.5 292.5 293 L 272.5 286 L 260 274.5 Q 253.8 266.7 251 255.5 L 249 238.5 Q 251.8 236.8 250 230.5 L 254 217.5 Q 259.5 204.5 269.5 196 L 282.5 187 L 299.5 182 Z "/><path fill="rgb(1,0,0)" stroke="rgb(1,0,0)" stroke-width="1" opacity="1" d="M 433 313 L 435.5 314 L 452.5 314 L 453.5 315 L 472.5 317 Q 494 323.5 508 337.5 L 521 354.5 L 530 374.5 L 533 390.5 L 533 415.5 L 527 445.5 L 514.5 469 L 500.5 464 L 496 459.5 L 489 447.5 L 479 424.5 L 434 318.5 L 433 313 Z "/><path fill="rgb(1,0,0)" stroke="rgb(1,0,0)" stroke-width="1" opacity="1" d="M 326.5 370 L 412.5 370 L 414 371.5 L 446 451.5 L 446 459.5 L 441.5 465 L 434.5 468 L 419 469 L 419.5 472 L 421.5 471 L 423.5 471 L 511.5 471 L 512 472.5 L 492.5 493 Q 477.6 504.6 457.5 511 L 432.5 516 L 407.5 516 L 378.5 510 L 363.5 504 Q 344.4 494.1 331 478.5 Q 317.6 462.9 311 440.5 L 311 435.5 L 309 428.5 L 309 410.5 L 313 391.5 Q 317.9 378.9 326.5 370 Z "/><path fill="rgb(1,0,0)" stroke="rgb(1,0,0)" stroke-width="1" opacity="1" d="M 103.5 545 Q 110.8 544.4 114 547 Q 115.8 549.4 115 555.5 Q 112.5 560.5 103.5 559 L 102 557.5 L 102 546.5 L 103.5 545 Z "/><path fill="rgb(1,0,0)" stroke="rgb(1,0,0)" stroke-width="1" opacity="1" d="M 175.5 545 L 180.5 546 L 183.5 545 L 189 548.5 L 191 554.5 L 189 561 Q 184.3 564.6 174 563 L 174 546.5 L 175.5 545 Z "/><path fill="rgb(1,0,0)" stroke="rgb(1,0,0)" stroke-width="1" opacity="1" d="M 258.5 545 Q 267.7 544.8 271 550.5 Q 274.6 555.9 273 566.5 L 268.5 574 Q 264.5 577.5 255.5 576 L 249 570.5 L 247 563.5 L 247 558.5 L 249 551.5 L 254.5 546 L 258.5 545 Z "/><path fill="rgb(1,0,0)" stroke="rgb(1,0,0)" stroke-width="1" opacity="1" d="M 311.5 545 L 312.5 546 L 320.5 546 L 322 547.5 L 323 555.5 Q 320 560.8 311 559 L 311.5 545 Z "/><path fill="rgb(1,0,0)" stroke="rgb(1,0,0)" stroke-width="1" opacity="1" d="M 573.5 545 Q 582.5 544.5 586 549.5 Q 590.2 554.3 589 564.5 Q 587.9 571.9 582.5 575 L 576.5 577 L 571.5 576 L 565 571.5 Q 561.4 566.1 563 555.5 Q 564.3 549.8 568.5 547 L 573.5 545 Z "/><path fill="rgb(1,0,0)" stroke="rgb(1,0,0)" stroke-width="1" opacity="1" d="M 723 545 L 727.5 546 L 732.5 545 L 739 549.5 L 740 557.5 L 735.5 563 Q 726.9 563.9 723 561 L 723 545 Z "/><path fill="rgb(1,0,0)" stroke="rgb(1,0,0)" stroke-width="1" opacity="1" d="M 32.5 548 L 38 562 L 27.5 562 L 27 560.5 L 32.5 548 Z "/><path fill="rgb(1,0,0)" stroke="rgb(1,0,0)" stroke-width="1" opacity="1" d="M 355.5 548 L 361 561.5 L 350 562 L 353 551.5 L 355.5 548 Z "/><path fill="rgb(1,0,0)" stroke="rgb(1,0,0)" stroke-width="1" opacity="1" d="M 434.5 548 L 440 561.5 L 428.5 562 L 429 560.5 L 434.5 548 Z "/><path fill="rgb(1,0,0)" stroke="rgb(1,0,0)" stroke-width="1" opacity="1" d="M 103.5 561 Q 105 563.5 110.5 562 L 112.5 562 L 118 564.5 L 119 570.5 L 115.5 575 L 113.5 576 L 102 576 L 102 562.5 L 103.5 561 Z "/><path fill="rgb(1,0,0)" stroke="rgb(1,0,0)" stroke-width="1" opacity="1" d="M 311 562 L 322.5 562 L 326 564.5 L 327 571.5 L 321.5 576 L 311 576 L 311 562 Z "/><path fill="rgb(236,211,89)" stroke="rgb(236,211,89)" stroke-width="1" opacity="1" d="M 320.5 176 L 463.5 176 L 464.5 177 L 485.5 178 L 500.5 181 L 521.5 189 Q 536.8 196.8 547 209.5 L 557 229.5 L 558 244.5 Q 555.3 246.2 557 252.5 L 550 269.5 L 535.5 287 Q 523.6 297.6 507.5 304 L 487.5 310 L 483 310 Q 481.7 313.3 486.5 312 L 515.5 322 L 535.5 333 L 557 353.5 Q 568.6 367.9 574 388.5 L 576 412.5 L 575 413.5 L 575 421.5 L 573 430.5 L 567 446.5 Q 557.8 463.8 544.5 477 Q 522.5 498.9 490.5 511 L 475.5 516 L 451.5 521 Q 445.3 519.3 443.5 522 L 411.5 522 L 381.5 516 L 368.5 511 Q 344.8 500.2 329 481.5 Q 314.9 465.1 308 441.5 L 305 425.5 L 305 408.5 L 309 388.5 L 319 370.5 L 300 370 L 283 413.5 L 279 430.5 L 278 444.5 L 281 456.5 L 289.5 466 L 299.5 469 L 306 469 L 305.5 471 L 293.5 471 L 292.5 472 L 269.5 472 L 268.5 471 L 244.5 471 L 240.5 472 L 235.5 471 Q 234 473.5 228.5 472 L 225 470.5 L 226.5 469 L 232.5 469 L 240.5 467 L 254 456.5 L 266 439.5 L 277 417.5 L 325 296.5 L 322.5 296 L 310.5 300 L 295.5 301 Q 293.8 298.3 287.5 300 L 275.5 296 Q 264.4 291.1 257 282.5 L 255 279.5 Q 247.4 271.6 244 259.5 L 242 239.5 L 243 238.5 L 244 225.5 L 249 212.5 L 261.5 196 Q 271.1 186.6 284.5 181 L 302.5 177 L 319.5 177 L 320.5 176 Z M 394 180 L 394 224 L 429 307 L 433 311 Q 437 312 439 310 L 457 310 L 467 308 Q 482 304 493 294 Q 511 279 517 252 L 517 235 L 515 225 L 510 213 L 504 204 Q 496 193 484 187 L 466 181 L 458 181 L 457 180 L 394 180 Z M 300 182 L 283 187 L 270 196 Q 259 204 254 218 L 250 231 Q 252 237 249 239 L 251 256 Q 254 267 260 275 L 273 286 L 293 293 Q 308 293 317 286 Q 326 278 330 265 L 330 252 L 322 237 L 320 237 L 325 235 Q 337 233 343 238 Q 345 237 344 240 L 346 240 L 352 252 L 352 266 Q 350 275 345 281 Q 340 288 332 292 L 329 295 L 323 310 L 317 328 L 302 364 L 302 367 L 305 366 L 329 366 L 330 367 L 360 367 L 361 366 L 411 367 L 407 354 L 355 230 L 342 204 L 335 195 Q 324 182 300 182 Z M 433 313 L 434 319 L 479 425 L 489 448 L 496 460 L 501 464 L 515 469 L 527 446 L 533 416 L 533 391 L 530 375 L 521 355 L 508 338 Q 494 323 473 317 L 454 315 L 453 314 L 436 314 L 433 313 Z M 327 370 Q 318 379 313 392 L 309 411 L 309 429 L 311 436 L 311 441 Q 318 463 331 479 Q 344 494 364 504 L 379 510 L 408 516 L 433 516 L 458 511 Q 478 505 493 493 L 512 473 L 512 471 L 424 471 L 422 471 L 420 472 L 419 469 L 435 468 L 442 465 L 446 460 L 446 452 L 414 372 L 413 370 L 327 370 Z "/><path fill="rgb(236,211,89)" stroke="rgb(236,211,89)" stroke-width="1" opacity="1" d="M 548.5 542 Q 551.1 541.2 550 544.5 Q 552.2 545.8 551 550.5 Q 549 554 547 549.5 Q 547.8 547.3 545.5 548 L 537.5 545 Q 536.3 547.3 531.5 546 L 526 550.5 L 523 558.5 L 523 563.5 Q 524.2 571.3 529.5 575 Q 532.2 577.8 538.5 577 Q 545.9 575.9 549.5 571 L 552 571 L 549.5 575 Q 544.2 581.2 530.5 579 L 521 572.5 L 518 567.5 L 517 559.5 Q 519 549.5 526.5 545 L 531.5 543 L 547.5 543 L 548.5 542 Z "/><path fill="rgb(236,211,89)" stroke="rgb(236,211,89)" stroke-width="1" opacity="1" d="M 671.5 542 L 673 551 Q 669.3 552.5 670 549.5 Q 665.8 544.8 656.5 545 Q 650.8 546.3 648 550.5 L 646 554.5 L 645 563.5 Q 646.5 572 652.5 576 L 661.5 577 L 673.5 570 L 674 571.5 L 671.5 575 Q 665.8 580.8 652.5 579 L 645 575 L 645 573 Q 642.3 574.1 643 571.5 L 640 566.5 Q 641.3 561.8 639 560.5 Q 640.6 549.6 648.5 545 L 654.5 543 L 670.5 543 L 671.5 542 Z "/><path fill="rgb(236,211,89)" stroke="rgb(236,211,89)" stroke-width="1" opacity="1" d="M 31 543 L 38 543 L 38 545.5 L 50 576 L 54 577.5 L 52.5 579 L 42 579 L 44 575.5 L 40 565 L 25.5 565 L 25 566.5 L 21 577 L 23 577.5 L 21.5 579 L 15 579 Q 13.9 576.3 16.5 577 L 20 572.5 L 31 543 Z M 33 548 L 27 561 L 28 562 L 38 562 L 33 548 Z "/><path fill="rgb(236,211,89)" stroke="rgb(236,211,89)" stroke-width="1" opacity="1" d="M 58 543 L 68.5 543 L 69 545 L 66 546.5 L 66 576 L 80.5 576 L 86 571.5 L 87 568 Q 91 566.6 89 573.5 L 88 579 L 58.5 579 L 58 577 Q 61 578.3 60 574.5 Q 62.3 573.2 61 568.5 Q 58.3 566.8 60 560.5 L 61 559.5 L 61 546.5 L 58 545 L 58 543 Z "/><path fill="rgb(236,211,89)" stroke="rgb(236,211,89)" stroke-width="1" opacity="1" d="M 94 543 L 114.5 543 L 119 545 L 121 548.5 L 121 555.5 L 118 559.5 L 123 562.5 Q 125.7 564.8 125 570.5 L 120.5 577 L 115.5 579 L 94 579 Q 93.3 575.9 96 576.5 L 96 545 Q 93 546 94 543 Z M 104 545 L 102 547 L 102 558 L 104 559 Q 113 561 115 556 Q 116 549 114 547 Q 111 544 104 545 Z M 104 561 L 102 563 L 102 576 L 114 576 L 116 575 L 119 571 L 118 565 L 113 562 L 111 562 Q 105 564 104 561 Z "/><path fill="rgb(236,211,89)" stroke="rgb(236,211,89)" stroke-width="1" opacity="1" d="M 129.5 543 L 158.5 543 L 159 544.5 L 161 554 L 158 552.5 L 153.5 546 L 149.5 545 L 146.5 546 L 144.5 546 L 139.5 545 L 138 546.5 L 138 559 L 146.5 559 L 149 556.5 Q 148.2 553.5 152 555 Q 149.8 558.7 151 567 Q 148.3 568.1 149 565.5 Q 146.8 560 138 562 L 138 576 L 152.5 576 Q 157.3 573.4 158 568 Q 162.1 566.3 161 570.5 L 159 579 L 130.5 579 L 129 577.5 L 132 575.5 L 132 546.5 L 129.5 543 Z "/><path fill="rgb(236,211,89)" stroke="rgb(236,211,89)" stroke-width="1" opacity="1" d="M 165.5 543 L 188.5 543 L 195 547.5 L 197 555.5 Q 195.6 561.6 190.5 564 L 186 565.5 L 193.5 576 L 201 576.5 L 194.5 579 L 189.5 579 L 185 575.5 L 178.5 566 L 174 566 L 174 575.5 L 176 579 L 166.5 579 L 165 577.5 L 168 576 L 168 545.5 L 166.5 545 L 165.5 543 Z M 176 545 L 174 547 L 174 563 Q 184 565 189 561 L 191 555 L 189 549 L 184 545 L 181 546 L 176 545 Z "/><path fill="rgb(236,211,89)" stroke="rgb(236,211,89)" stroke-width="1" opacity="1" d="M 203 543 L 234.5 543 L 235 545.5 L 237 552.5 Q 235 556 233 551.5 L 230.5 547 L 225.5 545 L 222 546.5 L 222 575.5 L 223.5 577 Q 226.1 576.3 225 579 L 214.5 579 L 214 577.5 L 216 575.5 L 216 545 Q 213.9 546.6 208.5 546 L 205 549.5 L 202.5 554 L 201 551.5 L 203 543 Z "/><path fill="rgb(236,211,89)" stroke="rgb(236,211,89)" stroke-width="1" opacity="1" d="M 254.5 543 Q 272 541 277 551.5 Q 280.7 555.8 279 565.5 Q 277.2 572.7 271.5 576 Q 266.7 580.7 255.5 579 L 245 573 Q 240.8 568.5 241 558.5 Q 242.5 550 248.5 546 L 254.5 543 Z M 259 545 L 255 546 L 249 552 L 247 559 L 247 564 L 249 571 L 256 576 Q 264 578 269 574 L 273 567 Q 275 556 271 551 Q 268 545 259 545 Z "/><path fill="rgb(236,211,89)" stroke="rgb(236,211,89)" stroke-width="1" opacity="1" d="M 302 543 L 323.5 543 L 328 546.5 Q 330.3 549.7 329 556.5 L 327 560 L 332 563.5 L 333 571.5 L 327.5 578 L 324.5 579 L 302 579 Q 300.9 576.3 303.5 577 L 305 575.5 L 305 546.5 L 302 545 L 302 543 Z M 312 545 L 311 559 Q 320 561 323 556 L 322 548 L 321 546 L 313 546 L 312 545 Z M 311 562 L 311 576 L 322 576 L 327 572 L 326 565 L 323 562 L 311 562 Z "/><path fill="rgb(236,211,89)" stroke="rgb(236,211,89)" stroke-width="1" opacity="1" d="M 354.5 543 Q 359.8 541.8 361 544.5 L 373 576 L 376 577.5 L 375.5 579 L 365 579 L 367 575.5 L 361.5 565 L 348.5 565 L 348 566.5 L 344 577 L 346 577.5 L 344.5 579 L 338 579 L 339.5 576 Q 341.8 576.8 341 574.5 L 354.5 543 Z M 356 548 L 353 552 L 350 562 L 361 562 L 356 548 Z "/><path fill="rgb(236,211,89)" stroke="rgb(236,211,89)" stroke-width="1" opacity="1" d="M 381 543 L 392 543.5 L 389 546.5 L 389 576 L 403.5 576 L 408 572.5 L 410.5 568 Q 413.1 567.2 412 570.5 L 410 579 L 381.5 579 L 381 577.5 L 383 575.5 L 383 545 Q 380 546 381 543 Z "/><path fill="rgb(236,211,89)" stroke="rgb(236,211,89)" stroke-width="1" opacity="1" d="M 433.5 543 Q 439.6 541.8 439 544.5 L 452 576 L 455 577.5 L 454.5 579 L 444.5 579 L 443.5 577 Q 446.1 577.8 445 574.5 L 440.5 565 L 427.5 565 L 426 566.5 L 423 576.5 L 424 579 L 417.5 579 L 416 577.5 L 420 576 L 431 546.5 L 433.5 543 Z M 435 548 L 429 561 L 429 562 L 440 562 L 435 548 Z "/><path fill="rgb(236,211,89)" stroke="rgb(236,211,89)" stroke-width="1" opacity="1" d="M 459.5 543 Q 468.3 541.3 470 546.5 L 489.5 571 L 490 546.5 L 487 545 L 487.5 543 L 494.5 543 L 492 546.5 L 492 575.5 L 493.5 577 Q 496.1 576.3 495 579 L 487.5 579 L 487 577.5 L 465.5 551 L 465 575.5 L 467 579 L 460.5 579 L 459 577.5 L 462 575.5 L 462 546.5 L 459.5 543 Z "/><path fill="rgb(236,211,89)" stroke="rgb(236,211,89)" stroke-width="1" opacity="1" d="M 570.5 543 L 581.5 543 Q 588.3 545.3 592 550.5 Q 595.9 554.6 595 563.5 Q 593.5 571.1 588.5 575 Q 583.5 580.5 571.5 579 Q 563.8 577.1 560 571.5 Q 555.5 567 557 556.5 Q 559.1 548.6 565.5 545 L 570.5 543 Z M 574 545 L 569 547 Q 564 550 563 556 Q 561 566 565 572 L 572 576 L 577 577 L 583 575 Q 588 572 589 565 Q 590 554 586 550 Q 583 544 574 545 Z "/><path fill="rgb(236,211,89)" stroke="rgb(236,211,89)" stroke-width="1" opacity="1" d="M 599.5 543 Q 608.3 541.3 610 546.5 L 628 571 L 630 570.5 L 630 546.5 L 627 545 L 627.5 543 L 635 543 Q 636.1 545.7 633.5 545 L 632 546.5 L 632 575.5 L 635 577 L 634.5 579 L 627 579 L 605.5 551 L 605 575.5 L 607 579 L 600.5 579 L 600 577.5 L 602 575.5 L 602 545 L 599.5 543 Z "/><path fill="rgb(236,211,89)" stroke="rgb(236,211,89)" stroke-width="1" opacity="1" d="M 679 543 L 707.5 543 L 708 544.5 L 710 553 Q 705.9 554.7 707 550.5 Q 703.3 542.3 688.5 545 L 687 546.5 L 687 559 Q 694.6 560.1 698 558 L 699.5 555 Q 701.8 554.3 701 556.5 L 700 557.5 L 700 567 Q 697.3 568.1 698 565.5 L 695.5 562 L 687 562 L 687 576 L 701.5 576 L 706 572.5 L 708.5 568 Q 711.1 567.2 710 570.5 L 708 579 L 679.5 579 L 679 577 L 681 576.5 L 681 545 Q 678 546 679 543 Z "/><path fill="rgb(236,211,89)" stroke="rgb(236,211,89)" stroke-width="1" opacity="1" d="M 715 543 L 737.5 543 L 744 547.5 Q 746.7 549.8 746 555.5 L 743 562 Q 738.8 566 729.5 566 L 723.5 563 L 723 577 Q 726 576 725 579 L 715.5 579 L 715 577 L 717 576.5 L 717 545 Q 714 546 715 543 Z M 723 545 L 723 561 Q 727 564 736 563 L 740 558 L 739 550 L 733 545 L 728 546 L 723 545 Z "/><path fill="rgb(236,211,89)" stroke="rgb(236,211,89)" stroke-width="1" opacity="1" d="M 752 543 L 783.5 543 L 784 545.5 L 786 552.5 L 783 553 Q 782.6 548.3 778.5 546 L 771 545 L 771 575.5 L 772.5 577 L 774 577.5 L 772.5 579 L 763 579 Q 762 576 765 577 L 765 574.5 L 766 573.5 L 766 546.5 Q 764.8 543.8 759.5 545 L 754 549.5 L 753 553 Q 749 554.4 751 547.5 L 752 543 Z "/><path fill="rgb(236,211,89)" stroke="rgb(236,211,89)" stroke-width="1" opacity="1" d="M 210 615 L 590.5 615 Q 591.8 615.3 591 621.5 L 589.5 623 L 210 623 L 210 615 Z "/></svg>